P2
64 64
65535
18610 18316 17791 17311 17512 21374 23149 15124 05334 05289 06483 
06533 06482 07201 08841 09698 10336 10853 10827 10825 11128 11375 
11206 11105 11303 11227 11349 10870 11023 10920 11085 11014 11203 
10724 10581 10491 10460 10368 09790 08269 06963 12564 18521 17731 
16957 17720 17270 17159 17665 17743 18388 38355 45753 16563 06109 
09883 09715 09425 09737 09821 09720 10203 10221 08627 
17837 17702 17808 17050 19200 21975 21181 13870 05344 04859 06314 
06476 05889 06914 08519 09531 09937 10404 10870 10690 10808 11072 
11096 10927 10708 10875 11039 10869 10804 10653 11295 11334 10718 
10804 10448 10181 10268 10441 10036 08682 06885 08925 16232 19168 
18766 19475 18498 17774 17190 17265 15475 24222 46415 36715 07100 
08279 09369 09475 09690 09837 10134 11354 06489 00621 
17452 17945 18203 17714 20946 20786 19382 14252 05523 04825 06420 
06277 06062 06853 08441 09272 09994 10403 10528 10584 10595 10662 
10694 10457 10971 10455 10115 10359 10543 10260 10735 11367 10914 
10661 10161 09933 10057 10028 09973 09231 07171 07515 14309 19411 
19760 19476 19154 17915 17338 16841 16757 15002 34802 48770 22594 
05143 09792 09640 09511 10521 12086 06286 00596 01500 
17985 18428 18622 20476 22162 19162 19371 14566 04957 04788 06386 
06447 05945 06726 08294 09292 09854 10090 10022 10169 10409 10380 
10274 10074 11028 10043 08909 09395 09911 09728 10269 10674 10993 
10365 10060 09961 09650 09796 09927 08842 07269 07614 12947 17980 
19158 18670 18771 18097 17716 17662 17538 14794 20407 44912 43692 
11005 07589 09752 09599 11463 05860 00470 01437 01468 
19045 19087 20557 21294 20264 18601 19321 13956 04629 04786 06174 
06059 05895 06600 08205 08896 09422 09794 09581 09545 09959 09900 
10285 10222 09855 09146 08716 08082 08269 07571 07700 09181 10924 
10487 10036 09816 09653 09725 09540 08494 07665 07302 11787 16022 
17845 18301 17965 17588 17608 17756 16845 16010 12644 31781 51439 
30743 04631 08793 11134 05884 00333 01784 01789 01319 
19132 19471 21401 16685 16695 19372 19509 14148 04772 04532 06126 
06226 05957 06686 08171 09019 09447 09531 09587 10025 09771 09605 
10114 09425 10277 11744 13107 16385 21552 22035 19426 13963 08528 
07773 10525 10532 09694 09676 09373 08435 07439 06994 11347 14547 
15857 17426 16998 17040 17085 16398 15128 14530 13075 17833 43599 
47924 14801 06846 05962 00440 01473 02073 01525 01085 
18219 21272 18974 10680 15387 20540 20201 14403 04524 04207 05726 
05937 05950 06884 08141 08818 09277 09353 09937 09715 09399 10778 
11045 10625 14970 16460 18147 22753 27057 28476 29402 32294 29462 
16289 07082 09555 10037 09259 08691 07866 07160 06921 11616 14427 
14546 16194 16575 15762 15526 14702 13825 13156 13813 11586 27103 
50660 40459 06176 00312 01523 01708 01516 01439 01188 
21619 21885 12556 05946 16733 21273 20358 14453 04225 03756 05198 
05377 05834 06474 07607 08330 08791 09113 09097 09581 11219 12440 
10796 10990 12686 13247 15958 19092 22674 26567 29690 31014 34121 
36677 25361 08926 06739 09085 08242 07412 06554 06393 11471 14896 
14209 14696 15762 14948 13315 14110 13769 13290 13370 13588 13284 
42102 44939 03218 00714 01918 01487 01283 01358 01389 
23604 18261 06013 04844 16849 21502 19863 13610 03952 03594 05492 
05744 05634 06198 07292 07755 08417 08790 08813 10943 08573 07742 
09336 10833 12065 12557 13316 16641 22553 26683 29553 31862 33181 
35148 37200 32589 12540 04549 07854 07091 06503 06027 11893 16284 
15122 12665 12255 14876 13505 14145 13671 13457 13916 14486 14119 
22658 08928 00000 01850 01443 01462 01413 01732 01348 
20221 11649 02904 05913 16509 21767 20147 13535 03832 03745 05573 
05628 05649 06347 07510 07818 08503 08516 09411 09873 06534 08179 
09357 10193 11183 12452 12929 14971 19380 26840 30993 32160 32260 
33394 35865 40643 46482 26281 02358 07298 05826 05880 12076 16935 
16661 11508 05988 12011 14760 13977 13557 13617 13952 14375 16902 
04637 00000 01653 01458 01220 01488 01925 01507 06550 
13517 05740 03293 06140 16262 21555 20470 12978 04015 03878 05196 
05824 05823 06272 07402 07940 08609 09003 08736 06434 07808 08945 
08697 09170 11360 12775 13069 14407 18128 26616 29144 28003 33793 
39577 41051 40610 42101 48858 15747 01257 06369 05392 11554 16653 
16361 12587 02564 05942 14181 14025 13549 13565 13312 15769 09560 
00277 01764 01690 01334 01441 01651 02358 05904 15718 
05587 04280 04111 05636 15598 20997 20318 13163 03971 04185 05568 
05507 05731 06244 07407 08178 08424 09207 07451 07264 08300 08144 
08453 10467 12231 13689 14599 14087 17414 21608 25690 36486 39972 
38785 36975 38447 39966 44515 43555 10578 02107 05588 11685 16739 
16563 13443 02868 02051 10557 14976 13676 13554 14685 13381 01265 
01331 01732 01253 01480 01690 01416 05479 15118 17177 
03932 04713 04309 05890 15242 20639 20098 13280 04118 03746 05457 
05630 05605 06112 07415 07961 09349 08886 06586 07727 07722 08362 
10230 12328 13189 13633 13195 11326 15316 26734 35783 35342 34585 
35986 37766 39140 40150 40060 43227 46253 11692 01792 12078 16551 
16608 13257 03236 00409 05090 11719 11514 11188 15517 04712 00169 
01738 01604 01346 01599 01213 03274 13614 16208 21137 
04718 04785 04150 05801 15402 20164 19992 13924 04259 03729 05101 
05640 05708 06376 07590 06343 16221 08758 05945 07341 07758 09052 
11350 13081 12651 13151 08864 15044 28608 32780 31309 31560 34098 
37218 39098 38635 38755 39492 39791 46501 40650 02924 10865 16164 
16704 13178 03788 01018 00000 12999 26125 22887 09697 00078 01728 
01685 01637 01541 01556 01033 12094 15648 18966 21232 
04600 04575 04085 05218 14996 20293 19951 13642 03846 03245 04898 
05249 05450 06189 06499 08081 23018 05881 06730 07419 08003 10155 
11032 11553 11508 08345 17602 27482 27873 27093 29189 32716 35455 
34129 35050 37157 38370 38485 40792 39802 49338 18826 06383 17377 
16791 14178 02918 00000 15448 37382 44325 51938 21999 00009 02430 
01676 01483 01853 00536 08610 16258 18122 21287 19610 
04691 05035 04845 05515 14765 21399 20829 13722 03840 03343 05270 
05558 05512 06339 05585 13500 24508 03934 06771 07374 09225 09469 
10078 10682 08429 18613 25330 22172 25949 27376 30600 31298 29525 
32422 35370 35051 37144 37038 38071 38979 41860 39656 11652 16202 
18094 09998 03193 22455 37403 41587 40303 46372 33915 00017 02282 
01204 01376 00868 04117 16072 17360 20066 19567 19436 
05512 05647 05193 05823 14693 21117 21843 14883 04082 03719 05488 
05789 05661 06708 04789 17869 21257 03583 06353 07086 08300 09156 
09629 09188 16645 18714 18543 24414 26566 27707 28086 25788 28211 
31015 32750 35494 34903 29750 35587 38035 36810 40143 36407 14774 
14711 19125 31541 39236 40335 39036 37422 47267 29190 00003 02290 
01159 01533 00453 12286 17389 19803 19361 19018 18561 
05708 05606 05298 06288 15160 21894 23440 15799 04025 03866 05396 
05622 05298 06463 03585 22428 19564 04749 06189 06409 08021 08603 
09042 15085 15540 14443 19505 22985 24001 24158 23916 25706 26930 
27015 29816 29424 29302 30685 34319 33226 33369 32037 34471 25049 
28320 37700 38596 38704 37653 38545 39111 49083 21228 00000 02165 
01287 00904 06686 16258 18425 20121 19084 18917 18347 
05433 05484 05165 06159 15444 23193 23922 15819 04095 03711 05199 
05357 05187 06134 03554 27224 21804 07976 06498 06785 07920 08782 
13933 14413 12975 16289 16500 21008 22735 22516 23841 25478 24366 
24476 27664 27621 29691 32030 30057 27361 27867 26203 29726 34428 
38360 37796 37080 36344 39266 33074 33438 44766 10585 00008 01982 
01097 02351 14201 17124 20280 19835 19216 19247 19013 
05307 05172 04904 06134 16033 22866 23109 15819 04274 03913 05528 
05375 05242 05986 03852 26163 22614 12278 07140 05568 08295 12376 
12755 11430 15097 15383 15752 16977 20281 22860 22217 22872 21273 
21176 22128 24949 27131 26734 24486 24374 24535 31004 35970 36042 
34760 35345 36703 38316 37580 22615 22777 29174 01467 01416 01333 
00806 09265 16547 19317 20228 19663 19635 19445 19455 
05298 05096 04810 06464 16066 22793 23205 16384 04463 03772 05385 
05052 05238 05564 03923 28483 24983 14802 09467 06460 12052 11679 
10283 14114 12775 13458 15396 17390 16999 18463 16575 17234 20406 
21258 22083 22334 21650 20122 21582 26388 32216 34369 33903 34206 
35384 37287 37549 42732 30059 15280 22304 20922 00000 02377 01162 
03766 15611 17235 20101 19079 19159 19395 19362 19154 
05406 05454 05373 06863 16081 23254 23740 16788 04215 03475 05329 
05182 05245 05329 03438 31663 29878 17543 12837 08261 10418 09898 
13047 11509 11207 13322 14608 12582 09388 06605 14845 14466 12240 
14077 13495 10072 09446 20360 26783 33961 35503 33632 34183 36519 
37377 40339 41840 34054 10616 05714 32351 07864 00478 01819 00866 
09800 16766 19336 19789 18985 18871 18679 18837 18601 
05813 05814 05463 07200 16780 23458 23767 17051 04264 03473 05312 
05361 05303 05692 02308 27920 36448 13891 10570 08204 08182 12144 
10847 10828 11367 12157 11324 10650 08071 04070 07899 09861 04426 
04554 00914 00606 12532 27544 34914 34626 34160 34242 34884 37948 
40200 30699 14315 04411 06542 26942 16588 00000 01843 01100 02792 
14617 18102 20823 20058 19690 18931 18582 18598 18342 
06405 05953 05255 07100 16329 22911 23323 17067 04485 03461 05137 
05283 05422 05849 02202 19540 38062 16970 12554 08374 10878 10534 
09882 10510 11998 11115 08413 05346 03512 01894 06515 04465 06002 
03062 03997 13986 26824 30706 32150 31992 32126 33774 37436 31360 
18433 09680 07455 15692 29606 14134 00000 02014 01394 00961 08450 
16874 21018 21438 20534 20163 19560 18895 18958 18453 
06619 06303 05476 06569 16066 22988 23224 17219 04591 03390 05049 
05195 05233 05469 04572 09160 37619 26329 13238 09238 10512 08976 
09509 10810 08857 06382 03557 02735 01574 03498 03395 04809 05514 
05105 14884 28602 32637 28572 28433 28445 32304 33706 19633 05446 
07907 16256 24400 29247 13338 00000 02433 01569 01206 02012 12574 
18365 22633 21890 21335 20479 19635 19386 19164 18388 
06931 06516 05389 05674 15725 23149 23915 17517 04491 03104 04957 
05095 05032 05357 06986 03201 23823 34620 15052 08491 09504 09925 
09774 09920 04519 03769 02590 03172 03197 02014 02047 02886 06263 
10460 25376 34217 28599 28222 26669 29107 30692 32364 11739 04283 
10391 14513 22518 07640 00000 02025 01754 01419 00860 05605 13009 
21337 22572 21411 21428 20886 20344 20066 19413 18513 
06725 06399 05286 05169 15074 22998 24115 17742 04536 03109 05063 
05306 05144 05376 07099 04579 14875 41577 12912 07463 08871 10662 
09035 04953 01877 03237 03183 02448 05133 01614 00961 02800 06921 
19916 29801 26519 25202 26213 25321 31697 32811 35300 23986 02375 
03903 15403 07767 00000 02029 02006 01742 01110 01433 09767 14570 
22440 22769 21833 21440 21262 20716 20073 19719 18675 
06323 06380 05459 05273 14980 22851 24024 17988 04912 03097 05309 
05719 05417 05607 08349 05545 13547 34939 05648 08192 09482 07866 
04341 02241 01533 01576 03116 02629 06463 02207 02490 13158 19060 
24420 31102 24031 23713 21944 27839 34419 35152 38472 31297 04742 
00142 13834 09174 00326 01838 02244 01595 00683 04145 13815 17510 
18533 19973 20810 20827 21657 20852 19892 19699 18540 
06437 06032 05235 05155 14716 23280 24596 18233 05276 03567 05558 
05970 05566 06107 08764 07770 07617 22186 08128 09711 09209 02982 
01390 02719 02095 01652 01490 03348 05325 04245 10939 25312 25012 
23259 30246 20491 18202 22990 31129 34526 36609 39755 37822 10206 
00000 10225 10804 00012 02278 02212 01548 00629 08488 16496 21642 
19488 17857 17744 17746 18599 19744 19239 18926 18098 
06018 05755 04980 04943 14797 23517 24952 18165 04966 03582 05630 
05931 05839 06116 07619 07747 08810 11150 10129 11206 04675 02371 
02745 02032 03218 01320 02346 02852 01733 09411 19495 23958 30925 
25039 19502 18829 23258 24531 29122 33732 34983 38162 42467 17886 
00000 06915 12049 00391 02661 02009 01231 02407 12293 18212 22171 
21337 22273 21013 18414 17140 16191 15980 17027 17484 
05763 05743 05278 04939 14651 23434 25209 18599 05013 03468 05624 
06004 05633 06223 06822 09633 14401 03145 14392 05742 03034 04543 
03546 01928 01949 01092 03705 02203 05706 19777 26706 25227 31507 
13986 09736 09920 17493 24322 25464 31021 31315 35216 29647 11032 
00439 04319 14143 01392 02799 01843 00828 05466 14026 19685 20580 
20060 20711 21443 19790 19251 18452 17332 15800 14876 
05784 06159 05375 04545 14254 23529 25195 19113 05357 03387 05671 
05712 05275 05346 09044 14781 16264 08685 05422 03732 04678 04239 
03385 01581 03649 01595 02001 02973 16815 29319 31708 23827 07576 
06359 06702 02952 05637 13996 21241 30644 30627 13756 01978 03664 
01818 02732 14298 02272 02256 01592 00946 08701 15864 20368 19151 
19157 18974 19899 19125 18985 19790 19154 17695 15605 
05433 05196 04403 03578 14139 24251 25540 18627 05101 03077 05130 
05528 03891 09433 22176 14782 12606 03387 03260 04391 06014 04221 
01698 03253 02023 03901 00000 10784 24584 35748 27380 01659 00813 
00000 12400 07581 06420 10141 17015 36762 16606 00000 07512 01640 
00915 02308 14185 03319 01771 01268 01929 12300 18296 19843 18207 
18146 18509 18642 18601 18347 18134 17391 15241 13839 
05658 05429 04298 03134 13947 24690 26692 19133 05175 03841 06084 
06145 03086 07536 27775 20236 01787 03241 03253 02719 08686 04833 
00551 02825 01275 00451 03994 17663 32085 30618 08812 05768 05279 
06664 32796 22223 05099 07915 20336 36105 06070 08944 16721 01437 
01003 02314 14838 04815 01551 00856 04674 15105 19175 18996 17892 
18466 18233 18191 17598 17024 16298 13692 13611 19163 
06159 05740 04007 02831 13779 24700 27657 20405 05691 04258 06633 
07213 09746 12615 12337 02522 06987 06925 02070 04695 09248 08414 
00865 01100 01333 01081 11198 29055 30344 07602 11574 14699 10915 
10806 15345 18412 11532 07489 18901 38472 15548 12053 06879 02750 
01487 01666 15664 05971 00968 01031 08243 16492 19564 18069 17659 
18479 18143 17912 16527 15062 13349 19759 28468 32155 
05313 04598 03275 02017 13077 24473 27606 20819 05751 03827 06260 
09434 14666 07635 00900 02829 08338 05507 01338 06053 09626 08490 
01249 01506 00992 05142 21636 32784 06922 07362 14547 18237 20140 
19053 20708 19770 12883 08723 14846 40071 24375 12313 08771 05994 
01475 00815 16048 06636 00338 01666 10956 17908 19196 17660 18008 
17530 17209 16479 15473 13452 24395 35547 33855 32066 
04175 03662 02816 01847 13048 24308 26957 20317 05745 03464 07803 
10734 08424 04555 03201 07149 08608 01575 01080 03761 04650 07165 
05969 00090 02287 12197 33389 11445 02856 09880 12474 18096 23909 
25160 24303 19706 14087 09928 12399 39652 25969 14333 10293 06616 
01666 00726 14349 08211 00000 03531 14222 19602 18971 18000 17651 
17343 16662 16167 12716 22276 35754 34935 33174 34984 
03166 03122 02550 01636 12732 23301 25230 19519 05600 04696 07589 
08979 07213 06431 03842 06919 07151 01293 01367 01915 00571 06695 
12554 02034 03536 27495 23672 00000 06329 09216 11638 15438 20562 
24019 22185 17141 12236 09513 10285 36989 26556 13914 10974 05402 
01428 00795 12720 10574 00027 06341 17424 20790 18598 17874 16869 
16480 16255 14251 15950 33422 34007 34180 38486 39330 
03433 03374 02346 01179 12420 22820 24814 19675 04967 04937 11509 
08207 05891 06011 04449 09252 09585 01502 00959 03013 05015 11972 
08054 00248 11107 29328 02925 01941 04944 09027 10781 14251 16813 
19216 19920 15120 09825 09369 08214 34365 30524 12195 10926 03604 
01755 00981 10009 12941 00000 10000 18510 19641 18172 18135 17372 
16762 15752 12902 26665 35573 33838 39236 41138 39773 
03849 03459 02197 00974 12204 23010 25282 20270 05983 05343 07683 
04914 06136 04828 05716 06736 11101 02791 01168 01717 07298 04801 
00000 14088 23244 09325 00000 03865 04909 08711 10228 12943 14917 
16660 17981 12998 08356 10016 06468 27521 28161 11393 09332 01571 
02057 00770 07672 15248 01055 13968 19339 18807 17609 17684 17375 
17198 14547 16264 34160 34339 37705 40622 39799 40903 
03517 03249 02376 03115 14457 22173 24821 20784 06221 03466 06711 
04756 04300 05522 05787 05607 13345 05821 03791 03813 04023 02757 
05012 21734 19633 00000 01597 04603 05637 08271 09678 12421 14280 
15601 17470 15533 10139 06892 07556 21941 19536 12120 05875 00657 
02754 01400 05335 15039 04784 16669 19445 18239 17550 17525 16803 
16572 13456 21742 35582 36661 40272 40375 41928 41121 
03175 03148 02091 04836 16248 21568 24701 21380 06425 02755 09080 
05431 04559 05113 02189 05748 09273 10526 05271 03462 02507 19286 
14664 14445 03182 01427 01579 05187 06529 08596 09664 11704 12546 
14866 16589 16688 13810 18977 29009 32985 17009 10999 02494 01225 
03354 02182 03275 13596 09040 17605 19235 18013 17421 16925 16802 
16536 13233 25877 36379 39842 40332 40536 41833 41839 
02401 02445 01854 04356 15913 22090 25176 22187 05728 04244 09127 
04778 06012 02242 03337 03944 04165 10638 07990 03757 19079 22884 
10174 05816 00659 02066 01645 04130 05861 08388 09796 11470 11549 
11907 13068 14134 13800 20777 29610 26127 14274 07599 00754 01885 
03265 02364 01891 12580 12052 17951 19031 17469 17221 16930 16463 
15861 13007 28090 39406 41137 40736 40961 42641 42491 
01657 02044 01856 04856 16679 23699 26174 21274 07452 06337 09018 
04403 02200 02110 05496 08784 05150 06405 06036 15898 34161 11634 
10205 00286 02086 01689 02032 03234 04385 07952 09248 10272 13122 
10112 06094 07687 08476 09340 12258 07976 11574 03286 00911 01928 
03240 02896 01269 12033 15216 18353 18925 17722 17319 17205 16655 
15688 13053 31143 42735 41479 41149 42274 43681 43435 
01639 01772 01723 05317 16098 24269 26960 21994 09005 05524 08844 
05126 03164 02056 09322 09468 05810 06799 10989 16140 20107 14186 
02390 01393 01435 01825 02192 02761 03476 06206 07916 09066 11885 
13084 09460 07392 09437 15770 16585 14648 08036 00409 01562 01562 
03344 03273 01271 12710 17837 18753 19303 18746 18171 17283 16847 
15421 13193 36428 44056 42140 43368 43419 42067 40816 
01541 01234 02064 05626 13787 23685 26696 21903 05202 07012 06058 
05036 03478 01840 11534 13187 07886 09560 08704 18960 24712 03406 
01016 02047 01580 01927 02104 02291 02676 03885 06441 08497 10325 
11858 11310 10325 11003 10723 13143 12113 01549 01238 01968 01618 
03860 03590 01145 13307 18902 19066 19407 19058 18974 17913 16974 
14623 12559 39605 45390 43700 43970 41801 40505 40657 
01478 01064 02878 06810 13236 23140 25864 21474 06021 03821 04858 
03926 02196 02111 07470 08523 12326 08912 07521 13314 09891 00007 
02207 01646 01554 01393 01741 01675 02086 02102 03366 06791 10208 
11821 13835 17162 20186 21234 18287 06989 01046 02040 01971 01758 
04820 03858 01142 13695 20003 20229 19436 18506 18615 17839 16618 
14005 13811 42856 45168 42713 43315 42152 42338 41508 
01423 01229 01965 06119 14150 22901 25544 21384 05335 07184 03647 
03793 02732 00832 08803 06161 07158 12263 14835 10465 02316 00952 
02246 01998 01723 01530 01450 01942 02126 02458 01295 02714 06134 
09282 12439 16974 20465 19252 14394 01328 00025 02674 02284 01946 
05359 04392 01814 14101 17552 15302 17413 18384 18617 17587 16285 
12328 18051 46221 42991 42667 42591 39335 29601 15088 
01250 00999 01308 03752 13162 22574 24383 19445 14856 11081 03645 
02670 02721 00989 07141 12721 04092 11015 12684 11896 13940 03368 
02015 02423 01769 01478 01349 01835 01962 01846 04301 07765 09448 
11055 12400 15713 16653 17947 25144 23523 10175 00452 00140 02753 
05474 04616 02495 14375 12052 08166 10041 11138 13501 15100 15490 
10377 24931 44625 40338 41030 38274 19303 00624 00000 
10044 04839 01690 01385 09733 21573 23081 23566 09636 07513 01709 
02920 02600 05051 03015 08644 10036 10736 07002 09405 13850 08363 
02077 02092 02060 01331 01643 01567 02156 01491 05266 09279 09612 
11122 12412 13042 12872 18895 31087 37392 37737 28660 08621 00000 
05511 03774 02662 13737 14705 13318 10936 08727 06947 06787 08690 
06229 22594 41400 39577 40112 20195 01205 02228 04667 
16797 16438 07836 00892 08767 21905 23827 19832 16278 07062 00099 
03303 06255 05372 03634 04681 07669 03655 08726 15884 10187 09011 
05429 01203 02485 01546 02172 01746 02853 02059 04926 08408 09278 
11324 12606 11943 15133 21247 28090 30795 33948 39758 40992 15382 
00586 03456 02563 14139 17326 16338 15385 14006 11619 08557 09261 
06525 23662 43408 42406 23373 00585 03782 05148 05025 
07897 18538 19304 02812 08609 23588 25299 21100 18915 02519 01205 
02392 02039 02955 02400 03265 04573 03036 06044 13608 13235 11740 
09982 01553 02371 01542 02280 01647 04102 04084 04268 08950 10248 
12047 12248 12815 16532 19951 23624 27229 31173 34961 39675 44420 
12420 00425 03578 14804 17256 16592 15887 15350 14149 12783 12245 
10212 34652 45114 37533 07939 03194 06000 07129 05485 
00000 14001 26529 05624 07935 24025 26015 21386 12019 02228 01392 
02339 01024 05723 02274 02200 03797 05090 06139 08054 17884 05641 
16399 02843 02056 01415 02201 01178 04502 05003 03467 09571 10481 
11692 12498 13445 15404 18253 21540 25407 29606 34235 37398 43744 
39312 01514 02992 15669 16999 16416 15842 14983 14570 12512 11660 
23043 41241 45175 27121 02685 05938 07303 05425 06048 
00074 10622 27376 05992 07383 24721 26825 22549 11728 02253 01621 
00940 02668 08238 01446 02001 01885 03894 07113 06488 17920 07079 
16262 02924 02399 01706 01803 01320 05652 05624 04119 09893 10849 
11424 11713 13333 14658 17017 20201 24075 28544 33199 38259 40383 
47631 15558 00871 17450 17506 16581 15620 14172 13709 10325 26395 
40395 43911 41712 12792 03351 07503 06562 05231 06970 
00017 08625 27417 07271 06905 24596 26046 22503 09938 01391 01389 
01098 04293 05463 01467 01952 01348 02283 05198 10866 13697 14335 
14517 03662 02470 02024 01365 02524 08936 06036 04679 10175 11567 
11576 11319 12395 13881 16298 18797 22148 27365 32586 37036 39478 
45690 30168 02216 17629 16898 15891 15346 14750 12582 11824 39364 
42578 45400 30105 05456 05355 07679 05342 06668 06257 
00000 06782 27300 09450 06209 24042 25766 22521 10487 01179 01213 
01989 01977 02820 01925 01814 01405 03631 02553 11313 10891 05593 
03584 04827 05974 02842 01136 04456 10104 05489 06120 10930 11760 
12136 10959 11741 13095 15252 17831 20752 25273 31511 35687 38633 
42580 38614 08011 17575 17378 15685 15185 15015 12439 13658 37992 
41081 43283 16565 05708 06113 05682 05363 06675 05353 
00028 04421 25267 11263 05890 23524 26254 22603 12245 01544 01632 
02595 01658 02295 02034 02084 02145 03307 04314 09073 07706 10333 
06778 00468 01800 01453 01860 06525 09719 04234 08434 12049 12535 
12254 11573 11494 12696 14715 16766 19338 23083 29419 34372 37908 
40531 42640 18480 12285 15100 16806 17212 16142 14344 14266 18531 
39022 39843 09837 05259 05178 04237 06509 05356 05903 
00000 02967 25007 13894 05191 22224 25800 22653 10785 02498 01442 
01500 02042 02419 02552 01304 01864 03442 09274 02805 03724 07638 
05543 00766 01428 00937 03769 08478 07202 03922 10818 11839 12971 
12621 12141 11399 12360 14244 15751 18140 21814 26542 32561 37289 
39971 44746 28095 01614 05409 08002 11085 13163 17189 15843 13817 
42637 30578 04357 04617 03966 05712 05779 06284 04857 
00532 02055 25987 18751 04859 21699 26035 23614 09114 02632 01142 
01827 02079 02108 02489 01622 01575 01524 08733 12840 06116 02971 
00588 01369 00761 01817 06513 08767 02598 07726 11611 11627 12298 
12809 12381 11474 11656 12852 14897 17209 19918 24295 30438 36023 
39035 43442 35776 04514 05532 03469 02117 01699 07370 24202 26856 
44602 13531 01052 03586 05719 05825 05143 06944 03048 
04645 05674 25843 23142 05764 21704 27044 24102 08874 02242 01463 
01599 01574 01874 02491 01777 01494 02134 01557 10484 10683 03153 
00927 01001 01204 04633 08077 03299 04484 10737 11507 12011 11963 
12902 12843 12069 11776 12328 13644 15956 18346 22078 27534 33996 
38165 40674 42252 11382 06648 06993 04482 00764 04381 33880 34913 
25455 01259 02236 04620 06527 03530 06681 06787 02682 
04460 08132 24200 23578 06673 21110 27426 24523 08022 01595 01568 
01737 01778 02058 03596 03826 02175 03223 03092 06066 08350 01326 
01217 00929 02262 03917 03127 04599 09124 10432 11488 12036 12100 
12785 13533 13247 12494 12262 12925 14667 17434 20412 24526 30646 
36403 39467 44484 20223 03989 07930 06355 04747 05925 33056 19827 
01046 02212 04344 07098 03365 04606 08711 05197 02668 
02210 03244 19934 25573 07591 20327 27697 25079 06072 00882 01828 
02142 02607 02427 02862 06702 04269 04142 03640 06850 08814 01088 
01261 01069 02683 04327 07076 09418 09773 09975 11136 11494 12089 
12611 13720 13848 13534 12964 13003 14301 16313 19056 23483 28575 
33498 37888 43950 29905 02887 08221 08386 08733 08243 09382 04041 
04419 03840 06552 04260 02517 08676 08991 03383 01819 
02519 00264 22264 37345 11904 19567 27893 23648 04164 01233 01880 
02270 02569 04014 03393 05752 07325 04503 03361 04242 05564 03244 
00851 03003 06357 08118 08914 09465 09823 10180 10723 11315 11775 
12192 13031 13782 14132 14356 14253 14966 16020 18605 21998 26321 
31186 36059 40775 37461 06093 06702 09592 10124 08372 06718 08435 
05897 05472 04572 02913 07353 10863 05197 01755 02197 
02386 00000 22989 39016 14159 19040 27920 22880 03614 01088 02213 
02942 02493 05865 03928 04461 06161 06472 03310 02240 03708 06878 
02174 04596 06884 08153 09063 09601 09886 10204 10569 11223 11074 
12084 13164 13594 13643 14827 15103 15290 16746 18686 21066 24607 
30677 34708 38335 41201 11415 04465 08618 10693 09245 11000 09918 
04955 04359 04709 04779 11727 09376 01767 01215 04158 
